PathFileType	4	(X/Y/Z)	E:\3-PhD\Data\MocapData\ElaboratedData\009\pre\dynamicElaborations\RunN2\RunN2.trc
DataRate	CameraRate	NumFrames	NumMarkers	Units	OrigDataRate	DataStartFrame
200	200	4	54	mm	200	388
Frame#	Time	FHD			LBHD			RBHD			C7			T10			CLAV			LSHO			LUUPA			LMUPA			LDUPA			LLEP			LMEP			LRAD			LUL			LRFIN			RSHO			RUPA1			RMUPA			RDUPA			RLEP			RMEP			RRAD			RUL			RUFIN			RASI			USACR			LSACR			RSACR			LTHI1			LTHI2			LTHI3			LTHI4			LTIB1			LTIB2			LTIB3			LTIB4			LLMAL			LHEE			LMT1			LMT2			RTHI			RTHI2			RTHI3			RTHI4			RLFC			RTIB1			RTIB2			RTIB3			RTIB4			RLMAL			RHEE			RMT1			RMT2			RMT5		
		X1	Y1	Z1	X2	Y2	Z2	X3	Y3	Z3	X4	Y4	Z4	X5	Y5	Z5	X6	Y6	Z6	X7	Y7	Z7	X8	Y8	Z8	X9	Y9	Z9	X10	Y10	Z10	X11	Y11	Z11	X12	Y12	Z12	X13	Y13	Z13	X14	Y14	Z14	X15	Y15	Z15	X16	Y16	Z16	X17	Y17	Z17	X18	Y18	Z18	X19	Y19	Z19	X20	Y20	Z20	X21	Y21	Z21	X22	Y22	Z22	X23	Y23	Z23	X24	Y24	Z24	X25	Y25	Z25	X26	Y26	Z26	X27	Y27	Z27	X28	Y28	Z28	X29	Y29	Z29	X30	Y30	Z30	X31	Y31	Z31	X32	Y32	Z32	X33	Y33	Z33	X34	Y34	Z34	X35	Y35	Z35	X36	Y36	Z36	X37	Y37	Z37	X38	Y38	Z38	X39	Y39	Z39	X40	Y40	Z40	X41	Y41	Z41	X42	Y42	Z42	X43	Y43	Z43	X44	Y44	Z44	X45	Y45	Z45	X46	Y46	Z46	X47	Y47	Z47	X48	Y48	Z48	X49	Y49	Z49	X50	Y50	Z50	X51	Y51	Z51	X52	Y52	Z52	X53	Y53	Z53	X54	Y54	Z54	

402	2.005000	-458.069006	1486.922504	-7.916153	-658.238810	1467.557387	-18.017385	-574.004156	1478.696111	76.363232	-696.258809	1354.606486	35.936541	-881.621787	1060.148496	81.903376	-606.202886	1218.449547	12.126492	-652.240150	1269.638990	-129.115786	-821.560681	1170.250438	-206.967629	-817.539973	1121.525067	-197.556834	-874.882660	1127.733259	-216.702394	-975.136517	1071.696115	-224.100632	-997.631518	1079.009201	-149.123130	-1080.980284	832.827665	-182.362633	-1137.069885	861.271608	-222.939789	-1116.824178	759.297334	-207.556604	-601.416359	1293.944876	179.663919	-638.207898	1199.897369	323.511398	-616.369626	1159.809211	328.602376	-649.198737	1160.900832	378.059766	-669.556694	1052.266459	464.764900	-719.754418	1014.770333	431.109555	-478.310151	922.818661	354.207794	-480.468553	886.779530	415.997693	-403.546755	926.740602	371.296820	-726.759458	876.443432	182.622186	-920.782104	969.837367	104.115523	-932.767297	932.739970	86.449862	-915.861635	946.402051	141.719209	-773.274667	626.609854	-104.710108	-705.106087	581.539852	-128.664867	-666.937277	609.344944	-131.963768	-694.211571	520.934542	-118.911786	-684.465058	344.716336	-15.128083	-763.772390	376.717924	-33.616456	-741.520253	346.964432	-12.510885	-789.329139	330.684927	58.283702	-933.738362	337.141547	122.022260	-980.736373	398.705740	190.705577	-874.411288	202.466905	195.599933	-894.078076	195.899438	151.824471	-728.113663	692.335593	343.137063	-680.662807	649.914247	355.322296	-648.898688	651.277656	343.307906	-693.587497	566.479539	375.769060	-651.325064	469.370076	402.032774	-674.339466	255.501022	456.749036	-752.194074	231.335573	529.140232	-717.386174	205.757828	511.844417	-737.117437	152.749810	503.088557	-812.622154	108.100064	581.939893	-898.296103	59.980391	572.773242	-680.735788	57.808088	508.415676	-670.659953	57.531049	546.930517	-696.244851	34.317869	609.275418	
403	2.010000	-434.019090	1485.983701	-20.412595	-634.366735	1466.182500	-28.238124	-549.081564	1477.459608	65.173694	-671.262508	1353.477479	26.840729	-856.734751	1059.491284	75.508878	-581.935063	1216.442586	1.692975	-630.750928	1267.522320	-139.092394	-803.886763	1172.156470	-212.801310	-800.386431	1123.104586	-204.490827	-858.280890	1130.995182	-221.462434	-959.485577	1076.380873	-227.027561	-980.139370	1083.943856	-151.565411	-1068.779616	839.822124	-182.208175	-1125.078188	869.363024	-221.855807	-1107.641041	766.454215	-205.856802	-572.122795	1293.437574	168.043274	-602.226520	1196.930970	311.848719	-579.012128	1157.577008	315.982322	-610.271995	1156.778666	366.220696	-624.270597	1046.118127	451.722317	-674.468820	1007.489496	418.767362	-432.774681	926.682565	331.845710	-430.893463	889.273109	392.754369	-357.773129	933.439213	346.396632	-702.737409	876.381203	178.628424	-896.220051	969.080489	97.598714	-908.105129	931.951726	79.734692	-891.782295	945.569860	135.226025	-744.759182	630.794833	-113.122253	-674.896863	589.311221	-138.649495	-638.111121	618.949639	-142.205534	-660.971905	529.151537	-129.729913	-640.508038	350.257817	-27.531563	-721.877123	377.853887	-43.670863	-697.463330	349.028116	-23.505098	-742.835098	329.106861	47.905221	-885.754733	326.003236	114.950017	-935.027537	383.469785	185.466500	-816.346295	194.740796	185.269725	-836.435133	187.427229	141.762028	-709.039798	691.220375	339.916145	-662.917886	647.766106	353.142790	-631.000400	648.236978	341.490953	-678.276660	564.855469	374.040047	-639.150569	466.674362	401.730396	-668.149112	253.810384	457.311618	-747.349642	232.048394	529.065506	-713.020935	205.548518	512.424722	-734.182864	152.923956	503.342890	-811.529384	110.620729	581.899516	-897.927408	63.755756	572.244003	-680.320407	57.697069	508.535915	-670.314461	57.456613	547.212308	-696.451621	34.346089	609.370702	
404	2.015000	-410.023188	1485.653722	-32.981155	-610.501002	1465.356132	-38.753453	-524.277181	1476.742705	53.763084	-646.207498	1352.883592	17.413124	-831.554543	1059.164516	68.898814	-557.628109	1215.124276	-9.155601	-609.330750	1266.148028	-149.344548	-786.054813	1175.021579	-219.038893	-783.189235	1125.682243	-211.781849	-841.515128	1135.247209	-226.646231	-943.801271	1082.186492	-230.368803	-962.634975	1090.075139	-154.575497	-1054.887429	847.441626	-181.893572	-1111.508577	877.526623	-220.718157	-1095.732441	774.138036	-203.745134	-543.082876	1293.637414	155.866103	-567.204682	1194.952280	299.479955	-542.608587	1156.360422	302.630191	-572.557351	1153.594947	353.468661	-580.263159	1041.008611	437.194363	-630.173017	1001.292723	404.583311	-388.776061	932.344526	308.071650	-382.879458	893.749676	367.851299	-313.743839	942.176147	320.114775	-678.424425	876.809001	174.467938	-871.280678	968.708750	90.976958	-883.127740	931.575916	72.889398	-867.353464	945.081666	128.602765	-716.535058	635.225431	-121.652029	-645.202561	597.226178	-148.581398	-609.811058	628.586340	-152.329200	-628.403692	537.643378	-140.397678	-596.917919	356.082964	-39.956962	-680.181096	378.879694	-53.871512	-653.601932	351.188243	-34.657440	-696.295696	327.598122	37.198143	-837.139749	314.545609	107.312967	-888.555073	367.568314	179.639608	-757.586812	187.533167	174.114723	-778.030204	179.392339	130.929340	-690.279232	690.151748	336.364827	-645.727153	645.529265	350.675024	-613.661438	645.001626	339.468739	-663.831234	563.251111	371.834263	-628.041363	464.162518	401.157659	-662.455155	252.517550	457.468030	-742.697230	233.109814	528.739371	-708.877361	205.735240	512.659286	-731.372533	153.508989	503.389604	-810.227268	113.425321	581.734257	-897.380112	68.079624	571.823545	-679.851315	57.529253	508.632017	-669.918665	57.338564	547.464371	-696.615479	34.425202	609.435426	
405	2.020000	-386.043764	1485.915979	-45.612446	-586.609037	1465.083896	-49.572384	-499.555869	1476.539411	42.134330	-621.107097	1352.808707	7.649290	-806.053863	1059.174225	62.108825	-533.261032	1214.499439	-20.421465	-587.963322	1265.506580	-159.864875	-767.987111	1178.721003	-225.668907	-765.869411	1129.149408	-219.369297	-824.493522	1140.334573	-232.258277	-927.978946	1088.954663	-234.063716	-945.038000	1097.263853	-158.102622	-1039.403966	855.560454	-181.490443	-1096.487380	885.695616	-219.574306	-1081.266755	782.198255	-201.365876	-514.342763	1294.524625	143.189523	-533.038009	1193.870022	286.477684	-507.126132	1156.032947	288.594714	-535.954431	1151.276088	339.893094	-537.546948	1036.868797	421.341494	-586.967112	996.143093	388.757504	-346.502080	939.644752	283.076178	-336.621327	900.079260	341.497273	-271.653763	952.751945	292.628667	-653.792561	877.618136	170.094493	-845.975985	968.731824	84.297430	-857.813919	931.613620	65.980238	-842.508292	944.976196	121.896405	-688.575906	639.883093	-130.276597	-616.001586	605.198595	-158.449757	-581.987366	638.144461	-162.328870	-596.524917	546.292929	-150.905325	-553.759133	362.116943	-52.462618	-638.673325	379.782290	-64.271225	-609.963836	353.426479	-46.032807	-649.710292	326.176458	26.103977	-787.845173	302.922014	99.039203	-841.183319	351.185166	173.161516	-698.279350	180.958677	162.083931	-719.003816	171.942471	119.270106	-671.777402	689.184265	332.444948	-629.021606	643.283634	347.846954	-596.831314	641.663944	337.148429	-650.144986	561.770020	369.095745	-617.830525	461.959128	400.141980	-657.177762	251.667576	457.124998	-738.158420	234.580645	528.111663	-704.879347	206.361211	512.480719	-728.617872	154.544600	503.173734	-808.632687	116.535344	581.358486	-896.603754	73.000952	571.489455	-679.327170	57.309709	508.686151	-669.474115	57.182226	547.666955	-696.728903	34.598628	609.458603	
